<svg width="32" height="32" viewBox="0 0 32 32" fill="none" xmlns="http://www.w3.org/2000/svg">
<rect width="32" height="32" rx="4" fill="#CDEBEC"/>
<path opacity="0.4" fill-rule="evenodd" clip-rule="evenodd" d="M9.9082 24.4573C9.9082 23.6002 10.5877 22.9062 11.427 22.9062C12.2564 22.9062 12.9358 23.6002 12.9358 24.4573C12.9358 25.3043 12.2564 25.9982 11.427 25.9982C10.5877 25.9982 9.9082 25.3043 9.9082 24.4573ZM21.1494 24.4573C21.1494 23.6002 21.8289 22.9062 22.6683 22.9062C23.4976 22.9062 24.1771 23.6002 24.1771 24.4573C24.1771 25.3043 23.4976 25.9982 22.6683 25.9982C21.8289 25.9982 21.1494 25.3043 21.1494 24.4573Z" fill="#409900"/>
<path fill-rule="evenodd" clip-rule="evenodd" d="M24.1766 9.92805C24.7861 9.92805 25.1858 10.1423 25.5855 10.6117C25.9852 11.0812 26.0551 11.7547 25.9652 12.3659L25.0159 19.0601C24.8361 20.3468 23.7569 21.2948 22.4879 21.2948H11.5864C10.2574 21.2948 9.15828 20.254 9.04837 18.908L8.12908 7.78408L6.62026 7.51877C6.22057 7.44734 5.94079 7.04936 6.01073 6.64118C6.08068 6.2228 6.47038 5.94727 6.88006 6.0085L9.2632 6.37586C9.60293 6.43811 9.85274 6.72282 9.88272 7.06977L10.0726 9.35558C10.1025 9.68314 10.3623 9.92805 10.6821 9.92805H24.1766ZM18.1205 15.2299H20.8884C21.308 15.2299 21.6378 14.883 21.6378 14.4646C21.6378 14.036 21.308 13.6992 20.8884 13.6992H18.1205C17.7008 13.6992 17.3711 14.036 17.3711 14.4646C17.3711 14.883 17.7008 15.2299 18.1205 15.2299Z" fill="#409900"/>
</svg>
