<svg width="32" height="32" viewBox="0 0 32 32" fill="none" xmlns="http://www.w3.org/2000/svg">
<circle cx="16" cy="16" r="15.5" stroke="#C03221"/>
<path d="M22.6637 18.1438C23.1288 16.6982 23.1122 15.136 22.6095 13.6946C22.0576 12.1125 20.9566 10.7809 19.5064 9.94154C18.0562 9.10222 16.3531 8.81093 14.7063 9.12059C13.0596 9.43025 11.5786 10.3203 10.5324 11.6291C9.48612 12.9379 8.94402 14.5785 9.00458 16.253C9.06513 17.9275 9.7243 19.5247 10.8624 20.7544C12.0004 21.9842 13.5418 22.765 15.2066 22.9549C16.7234 23.1279 18.2508 22.8 19.5585 22.028M22.6637 18.1438L25 16.5M22.6637 18.1438L21 16" stroke="#C03221" stroke-linecap="round"/>
<path d="M19 16C19 16.7235 18.09 16.9236 17.5 17.5C16.9318 18.055 16.6967 19 16 19C15.2765 19 15.0764 18.09 14.5 17.5C13.945 16.9318 13 16.6967 13 16C13 15.3337 13.9842 15.0569 14.5 14.5C15.0837 13.8698 15.2461 13 16 13C16.7539 13 16.9163 13.8698 17.5 14.5C18.0158 15.0569 19 15.3337 19 16Z" stroke="#C03221"/>
</svg>
