<svg width="20" height="21" viewBox="0 0 20 21" fill="none" xmlns="http://www.w3.org/2000/svg">
<path d="M1.19045 18.784C0.820898 19.1944 0.854036 19.8267 1.26446 20.1963C1.67489 20.5658 2.30719 20.5327 2.67674 20.1223L1.19045 18.784ZM18.7763 1.8042C18.7474 1.25268 18.2768 0.829007 17.7253 0.857911L8.73763 1.32894C8.1861 1.35784 7.76243 1.82837 7.79134 2.3799C7.82024 2.93143 8.29077 3.3551 8.8423 3.32619L16.8313 2.90751L17.25 10.8965C17.2789 11.4481 17.7495 11.8717 18.301 11.8428C18.8525 11.8139 19.2762 11.3434 19.2473 10.7919L18.7763 1.8042ZM2.67674 20.1223L18.5208 2.52567L17.0345 1.18741L1.19045 18.784L2.67674 20.1223Z" fill="#ADB5BD"/>
</svg>
