<svg width="1663" height="234" viewBox="0 0 1663 234" fill="none" xmlns="http://www.w3.org/2000/svg">
<g id="Graphic Side">
<g clip-path="url(#clip0_1820_2866)">
<path d="M0 0H1663V218C1663 226.837 1655.84 234 1647 234H16C7.16341 234 0 226.837 0 218V0Z" fill="url(#paint0_radial_1820_2866)"/>
<g id="Big Circles">
<g id="Ellipse 5" style="mix-blend-mode:multiply" opacity="0.75" filter="url(#filter0_i_1820_2866)">
<ellipse cx="884" cy="823.307" rx="1056.31" ry="1078" transform="rotate(90 884 823.307)" fill="white"/>
</g>
<g id="Ellipse 4" style="mix-blend-mode:multiply" opacity="0.75" filter="url(#filter1_i_1820_2866)">
<ellipse cx="641.164" cy="823.306" rx="817.689" ry="835.164" transform="rotate(90 641.164 823.306)" fill="white"/>
</g>
<g id="Ellipse 3" style="mix-blend-mode:multiply" opacity="0.75" filter="url(#filter2_i_1820_2866)">
<ellipse cx="609.227" cy="901.64" rx="694.765" ry="709.226" transform="rotate(90 609.227 901.64)" fill="white"/>
</g>
</g>
<g id="Frame 35289">
<g id="Frame 35288">
<path id="Hello Devs !" d="M41.6065 92H47.7571V79.983H60.2429V92H66.3793V62.9091H60.2429V74.9119H47.7571V62.9091H41.6065V92ZM81.2798 92.4261C86.6776 92.4261 90.3139 89.7983 91.1662 85.75L85.5696 85.3807C84.9588 87.0426 83.3963 87.9091 81.3793 87.9091C78.3537 87.9091 76.4361 85.9062 76.4361 82.6534V82.6392H91.294V80.9773C91.294 73.5625 86.8054 69.8977 81.0384 69.8977C74.6179 69.8977 70.456 74.4574 70.456 81.1903C70.456 88.108 74.5611 92.4261 81.2798 92.4261ZM76.4361 78.8892C76.5639 76.4034 78.4531 74.4148 81.1378 74.4148C83.7656 74.4148 85.5838 76.2898 85.598 78.8892H76.4361ZM101.294 62.9091H95.2429V92H101.294V62.9091ZM112.192 62.9091H106.141V92H112.192V62.9091ZM126.898 92.4261C133.517 92.4261 137.636 87.8949 137.636 81.1761C137.636 74.4148 133.517 69.8977 126.898 69.8977C120.278 69.8977 116.159 74.4148 116.159 81.1761C116.159 87.8949 120.278 92.4261 126.898 92.4261ZM126.926 87.7386C123.872 87.7386 122.31 84.9403 122.31 81.1335C122.31 77.3267 123.872 74.5142 126.926 74.5142C129.923 74.5142 131.486 77.3267 131.486 81.1335C131.486 84.9403 129.923 87.7386 126.926 87.7386ZM161.255 92C170.119 92 175.488 86.517 175.488 77.4261C175.488 68.3636 170.119 62.9091 161.34 62.9091H150.942V92H161.255ZM157.093 86.7301V68.179H161.013C166.468 68.179 169.352 70.9631 169.352 77.4261C169.352 83.9176 166.468 86.7301 160.999 86.7301H157.093ZM189.874 92.4261C195.271 92.4261 198.908 89.7983 199.76 85.75L194.163 85.3807C193.553 87.0426 191.99 87.9091 189.973 87.9091C186.947 87.9091 185.03 85.9062 185.03 82.6534V82.6392H199.888V80.9773C199.888 73.5625 195.399 69.8977 189.632 69.8977C183.212 69.8977 179.05 74.4574 179.05 81.1903C179.05 88.108 183.155 92.4261 189.874 92.4261ZM185.03 78.8892C185.158 76.4034 187.047 74.4148 189.732 74.4148C192.359 74.4148 194.178 76.2898 194.192 78.8892H185.03ZM223.553 70.1818H217.146L212.629 85.7926H212.402L207.871 70.1818H201.479L209.107 92H215.925L223.553 70.1818ZM244.803 76.4034C244.263 72.3835 241.024 69.8977 235.513 69.8977C229.93 69.8977 226.251 72.483 226.266 76.6875C226.251 79.9545 228.311 82.071 232.572 82.9233L236.351 83.6761C238.254 84.0597 239.121 84.7557 239.149 85.8494C239.121 87.142 237.714 88.0653 235.598 88.0653C233.439 88.0653 232.004 87.142 231.635 85.3665L225.683 85.679C226.251 89.8551 229.803 92.4261 235.584 92.4261C241.237 92.4261 245.286 89.5426 245.3 85.2386C245.286 82.0852 243.226 80.196 238.993 79.3295L235.044 78.5341C233.013 78.0938 232.26 77.3977 232.274 76.3466C232.26 75.0398 233.737 74.1875 235.612 74.1875C237.714 74.1875 238.964 75.3381 239.263 76.7443L244.803 76.4034ZM265.598 62.9091H259.277L259.845 83.2784H265.044L265.598 62.9091ZM262.445 92.3693C264.263 92.3693 265.839 90.8494 265.854 88.9602C265.839 87.0994 264.263 85.5795 262.445 85.5795C260.57 85.5795 259.021 87.0994 259.036 88.9602C259.021 90.8494 260.57 92.3693 262.445 92.3693Z" fill="white"/>
<path id="We are on a mission to help developers like you to build beautiful projects for free." d="M44.4196 132H46.9679L50.4881 119.471H50.6188L54.139 132H56.6792L61.3265 115.273H58.6639L55.4132 128.235H55.258L51.8684 115.273H49.2385L45.8489 128.227H45.6937L42.4348 115.273H39.7804L44.4196 132ZM67.6033 132.253C70.3395 132.253 72.2752 130.906 72.8306 128.864L70.5192 128.447C70.0781 129.631 69.0163 130.236 67.6278 130.236C65.5369 130.236 64.1321 128.88 64.0668 126.462H72.9858V125.597C72.9858 121.064 70.2741 119.291 67.4318 119.291C63.9361 119.291 61.6328 121.954 61.6328 125.809C61.6328 129.705 63.9034 132.253 67.6033 132.253ZM64.0749 124.633C64.1729 122.852 65.4634 121.309 67.4482 121.309C69.343 121.309 70.5845 122.713 70.5927 124.633H64.0749ZM85.4332 132.278C87.5078 132.278 88.6758 131.224 89.1413 130.285H89.2393V132H91.6243V123.669C91.6243 120.018 88.7493 119.291 86.7564 119.291C84.4858 119.291 82.3949 120.206 81.5781 122.493L83.8732 123.016C84.2326 122.125 85.1474 121.268 86.7891 121.268C88.3654 121.268 89.174 122.093 89.174 123.514V123.571C89.174 124.461 88.2592 124.445 86.005 124.706C83.6282 124.984 81.1942 125.605 81.1942 128.455C81.1942 130.922 83.0483 132.278 85.4332 132.278ZM85.9641 130.317C84.5838 130.317 83.5874 129.697 83.5874 128.488C83.5874 127.181 84.7472 126.716 86.1602 126.528C86.9524 126.422 88.831 126.209 89.1822 125.858V127.475C89.1822 128.962 87.9979 130.317 85.9641 130.317ZM94.877 132H97.3192V124.339C97.3192 122.697 98.5851 121.513 100.317 121.513C100.823 121.513 101.395 121.603 101.591 121.66V119.324C101.346 119.291 100.864 119.267 100.554 119.267C99.0834 119.267 97.8256 120.1 97.3682 121.447H97.2375V119.455H94.877V132ZM108.662 132.253C111.398 132.253 113.334 130.906 113.889 128.864L111.578 128.447C111.137 129.631 110.075 130.236 108.686 130.236C106.596 130.236 105.191 128.88 105.125 126.462H114.044V125.597C114.044 121.064 111.333 119.291 108.49 119.291C104.995 119.291 102.691 121.954 102.691 125.809C102.691 129.705 104.962 132.253 108.662 132.253ZM105.134 124.633C105.232 122.852 106.522 121.309 108.507 121.309C110.402 121.309 111.643 122.713 111.651 124.633H105.134ZM128.125 132.253C131.662 132.253 133.973 129.664 133.973 125.784C133.973 121.88 131.662 119.291 128.125 119.291C124.589 119.291 122.277 121.88 122.277 125.784C122.277 129.664 124.589 132.253 128.125 132.253ZM128.134 130.203C125.822 130.203 124.744 128.186 124.744 125.776C124.744 123.375 125.822 121.333 128.134 121.333C130.429 121.333 131.507 123.375 131.507 125.776C131.507 128.186 130.429 130.203 128.134 130.203ZM139.141 124.551C139.141 122.55 140.367 121.407 142.065 121.407C143.723 121.407 144.728 122.493 144.728 124.314V132H147.17V124.02C147.17 120.917 145.463 119.291 142.899 119.291C141.012 119.291 139.778 120.165 139.199 121.496H139.043V119.455H136.699V132H139.141V124.551ZM160.183 132.278C162.258 132.278 163.426 131.224 163.891 130.285H163.989V132H166.374V123.669C166.374 120.018 163.499 119.291 161.506 119.291C159.236 119.291 157.145 120.206 156.328 122.493L158.623 123.016C158.983 122.125 159.897 121.268 161.539 121.268C163.115 121.268 163.924 122.093 163.924 123.514V123.571C163.924 124.461 163.009 124.445 160.755 124.706C158.378 124.984 155.944 125.605 155.944 128.455C155.944 130.922 157.798 132.278 160.183 132.278ZM160.714 130.317C159.334 130.317 158.337 129.697 158.337 128.488C158.337 127.181 159.497 126.716 160.91 126.528C161.702 126.422 163.581 126.209 163.932 125.858V127.475C163.932 128.962 162.748 130.317 160.714 130.317ZM175.714 132H178.156V124.265C178.156 122.575 179.34 121.398 180.729 121.398C182.085 121.398 183.024 122.297 183.024 123.661V132H185.458V124.004C185.458 122.493 186.381 121.398 187.974 121.398C189.264 121.398 190.326 122.117 190.326 123.816V132H192.768V123.587C192.768 120.721 191.167 119.291 188.896 119.291C187.091 119.291 185.736 120.157 185.131 121.496H185.001C184.453 120.124 183.302 119.291 181.627 119.291C179.969 119.291 178.736 120.116 178.213 121.496H178.058V119.455H175.714V132ZM196.041 132H198.483V119.455H196.041V132ZM197.274 117.519C198.116 117.519 198.818 116.865 198.818 116.065C198.818 115.265 198.116 114.603 197.274 114.603C196.425 114.603 195.731 115.265 195.731 116.065C195.731 116.865 196.425 117.519 197.274 117.519ZM211.17 122.517C210.663 120.565 209.136 119.291 206.424 119.291C203.59 119.291 201.581 120.786 201.581 123.007C201.581 124.788 202.659 125.972 205.011 126.495L207.135 126.961C208.344 127.23 208.907 127.769 208.907 128.553C208.907 129.525 207.87 130.285 206.269 130.285C204.807 130.285 203.868 129.656 203.574 128.423L201.213 128.782C201.622 131.004 203.468 132.253 206.285 132.253C209.316 132.253 211.415 130.644 211.415 128.374C211.415 126.601 210.287 125.507 207.984 124.976L205.991 124.518C204.611 124.192 204.015 123.726 204.023 122.877C204.015 121.913 205.06 121.227 206.449 121.227C207.968 121.227 208.67 122.068 208.956 122.909L211.17 122.517ZM223.501 122.517C222.994 120.565 221.467 119.291 218.755 119.291C215.921 119.291 213.912 120.786 213.912 123.007C213.912 124.788 214.99 125.972 217.342 126.495L219.466 126.961C220.675 127.23 221.238 127.769 221.238 128.553C221.238 129.525 220.201 130.285 218.6 130.285C217.138 130.285 216.199 129.656 215.905 128.423L213.544 128.782C213.953 131.004 215.799 132.253 218.616 132.253C221.647 132.253 223.746 130.644 223.746 128.374C223.746 126.601 222.619 125.507 220.315 124.976L218.322 124.518C216.942 124.192 216.346 123.726 216.354 122.877C216.346 121.913 217.391 121.227 218.78 121.227C220.299 121.227 221.001 122.068 221.287 122.909L223.501 122.517ZM226.431 132H228.873V119.455H226.431V132ZM227.664 117.519C228.505 117.519 229.208 116.865 229.208 116.065C229.208 115.265 228.505 114.603 227.664 114.603C226.815 114.603 226.12 115.265 226.12 116.065C226.12 116.865 226.815 117.519 227.664 117.519ZM237.443 132.253C240.979 132.253 243.291 129.664 243.291 125.784C243.291 121.88 240.979 119.291 237.443 119.291C233.906 119.291 231.595 121.88 231.595 125.784C231.595 129.664 233.906 132.253 237.443 132.253ZM237.451 130.203C235.139 130.203 234.061 128.186 234.061 125.776C234.061 123.375 235.139 121.333 237.451 121.333C239.746 121.333 240.824 123.375 240.824 125.776C240.824 128.186 239.746 130.203 237.451 130.203ZM248.459 124.551C248.459 122.55 249.684 121.407 251.383 121.407C253.041 121.407 254.045 122.493 254.045 124.314V132H256.488V124.02C256.488 120.917 254.781 119.291 252.216 119.291C250.329 119.291 249.096 120.165 248.516 121.496H248.361V119.455H246.017V132H248.459V124.551ZM271.706 119.455H269.133V116.449H266.691V119.455H264.853V121.415H266.691V128.823C266.683 131.102 268.422 132.204 270.35 132.163C271.126 132.155 271.649 132.008 271.935 131.902L271.494 129.885C271.33 129.917 271.028 129.991 270.636 129.991C269.844 129.991 269.133 129.729 269.133 128.316V121.415H271.706V119.455ZM279.557 132.253C283.094 132.253 285.405 129.664 285.405 125.784C285.405 121.88 283.094 119.291 279.557 119.291C276.02 119.291 273.709 121.88 273.709 125.784C273.709 129.664 276.02 132.253 279.557 132.253ZM279.565 130.203C277.254 130.203 276.176 128.186 276.176 125.776C276.176 123.375 277.254 121.333 279.565 121.333C281.86 121.333 282.938 123.375 282.938 125.776C282.938 128.186 281.86 130.203 279.565 130.203ZM296.66 124.551C296.66 122.55 297.926 121.407 299.666 121.407C301.348 121.407 302.353 122.477 302.353 124.314V132H304.795V124.02C304.795 120.892 303.08 119.291 300.499 119.291C298.547 119.291 297.371 120.141 296.782 121.496H296.627V115.273H294.218V132H296.66V124.551ZM313.461 132.253C316.197 132.253 318.133 130.906 318.688 128.864L316.377 128.447C315.936 129.631 314.874 130.236 313.485 130.236C311.394 130.236 309.99 128.88 309.924 126.462H318.843V125.597C318.843 121.064 316.132 119.291 313.289 119.291C309.794 119.291 307.49 121.954 307.49 125.809C307.49 129.705 309.761 132.253 313.461 132.253ZM309.932 124.633C310.03 122.852 311.321 121.309 313.306 121.309C315.2 121.309 316.442 122.713 316.45 124.633H309.932ZM323.995 115.273H321.553V132H323.995V115.273ZM327.28 136.705H329.722V130.048H329.869C330.311 130.848 331.209 132.245 333.496 132.245C336.534 132.245 338.74 129.811 338.74 125.752C338.74 121.684 336.502 119.291 333.471 119.291C331.144 119.291 330.302 120.712 329.869 121.488H329.665V119.455H327.28V136.705ZM329.673 125.727C329.673 123.105 330.817 121.366 332.949 121.366C335.162 121.366 336.273 123.236 336.273 125.727C336.273 128.243 335.129 130.162 332.949 130.162C330.85 130.162 329.673 128.365 329.673 125.727ZM352.259 132.245C354.546 132.245 355.444 130.848 355.885 130.048H356.09V132H358.475V115.273H356.032V121.488H355.885C355.444 120.712 354.611 119.291 352.275 119.291C349.245 119.291 347.015 121.684 347.015 125.752C347.015 129.811 349.212 132.245 352.259 132.245ZM352.798 130.162C350.617 130.162 349.482 128.243 349.482 125.727C349.482 123.236 350.593 121.366 352.798 121.366C354.93 121.366 356.073 123.105 356.073 125.727C356.073 128.365 354.905 130.162 352.798 130.162ZM367.367 132.253C370.103 132.253 372.039 130.906 372.594 128.864L370.283 128.447C369.842 129.631 368.78 130.236 367.392 130.236C365.301 130.236 363.896 128.88 363.83 126.462H372.749V125.597C372.749 121.064 370.038 119.291 367.195 119.291C363.7 119.291 361.396 121.954 361.396 125.809C361.396 129.705 363.667 132.253 367.367 132.253ZM363.839 124.633C363.937 122.852 365.227 121.309 367.212 121.309C369.107 121.309 370.348 122.713 370.356 124.633H363.839ZM385.809 119.455H383.188L380.019 129.109H379.888L376.711 119.455H374.089L378.646 132H381.26L385.809 119.455ZM393.062 132.253C395.798 132.253 397.734 130.906 398.29 128.864L395.978 128.447C395.537 129.631 394.475 130.236 393.087 130.236C390.996 130.236 389.591 128.88 389.526 126.462H398.445V125.597C398.445 121.064 395.733 119.291 392.891 119.291C389.395 119.291 387.092 121.954 387.092 125.809C387.092 129.705 389.362 132.253 393.062 132.253ZM389.534 124.633C389.632 122.852 390.922 121.309 392.907 121.309C394.802 121.309 396.044 122.713 396.052 124.633H389.534ZM403.597 115.273H401.154V132H403.597V115.273ZM412.166 132.253C415.703 132.253 418.014 129.664 418.014 125.784C418.014 121.88 415.703 119.291 412.166 119.291C408.63 119.291 406.318 121.88 406.318 125.784C406.318 129.664 408.63 132.253 412.166 132.253ZM412.175 130.203C409.863 130.203 408.785 128.186 408.785 125.776C408.785 123.375 409.863 121.333 412.175 121.333C414.47 121.333 415.548 123.375 415.548 125.776C415.548 128.186 414.47 130.203 412.175 130.203ZM420.74 136.705H423.182V130.048H423.329C423.771 130.848 424.669 132.245 426.956 132.245C429.994 132.245 432.199 129.811 432.199 125.752C432.199 121.684 429.962 119.291 426.931 119.291C424.604 119.291 423.762 120.712 423.329 121.488H423.125V119.455H420.74V136.705ZM423.133 125.727C423.133 123.105 424.277 121.366 426.409 121.366C428.622 121.366 429.733 123.236 429.733 125.727C429.733 128.243 428.589 130.162 426.409 130.162C424.31 130.162 423.133 128.365 423.133 125.727ZM440.343 132.253C443.079 132.253 445.014 130.906 445.57 128.864L443.258 128.447C442.817 129.631 441.756 130.236 440.367 130.236C438.276 130.236 436.871 128.88 436.806 126.462H445.725V125.597C445.725 121.064 443.013 119.291 440.171 119.291C436.675 119.291 434.372 121.954 434.372 125.809C434.372 129.705 436.643 132.253 440.343 132.253ZM436.814 124.633C436.912 122.852 438.203 121.309 440.187 121.309C442.082 121.309 443.324 122.713 443.332 124.633H436.814ZM448.435 132H450.877V124.339C450.877 122.697 452.143 121.513 453.874 121.513C454.381 121.513 454.952 121.603 455.148 121.66V119.324C454.903 119.291 454.422 119.267 454.111 119.267C452.641 119.267 451.383 120.1 450.926 121.447H450.795V119.455H448.435V132ZM466.663 122.517C466.156 120.565 464.629 119.291 461.917 119.291C459.083 119.291 457.074 120.786 457.074 123.007C457.074 124.788 458.152 125.972 460.504 126.495L462.628 126.961C463.837 127.23 464.4 127.769 464.4 128.553C464.4 129.525 463.363 130.285 461.762 130.285C460.3 130.285 459.361 129.656 459.067 128.423L456.706 128.782C457.115 131.004 458.961 132.253 461.778 132.253C464.809 132.253 466.908 130.644 466.908 128.374C466.908 126.601 465.781 125.507 463.477 124.976L461.484 124.518C460.104 124.192 459.508 123.726 459.516 122.877C459.508 121.913 460.553 121.227 461.942 121.227C463.461 121.227 464.163 122.068 464.449 122.909L466.663 122.517ZM478.122 115.273H475.68V132H478.122V115.273ZM481.407 132H483.849V119.455H481.407V132ZM482.641 117.519C483.482 117.519 484.184 116.865 484.184 116.065C484.184 115.265 483.482 114.603 482.641 114.603C481.791 114.603 481.097 115.265 481.097 116.065C481.097 116.865 481.791 117.519 482.641 117.519ZM487.135 132H489.577V127.549L490.794 126.332L495.057 132H498.055L492.632 124.837L497.712 119.455H494.788L489.789 124.763H489.577V115.273H487.135V132ZM504.828 132.253C507.564 132.253 509.5 130.906 510.055 128.864L507.744 128.447C507.303 129.631 506.241 130.236 504.852 130.236C502.762 130.236 501.357 128.88 501.291 126.462H510.21V125.597C510.21 121.064 507.499 119.291 504.656 119.291C501.161 119.291 498.857 121.954 498.857 125.809C498.857 129.705 501.128 132.253 504.828 132.253ZM501.3 124.633C501.398 122.852 502.688 121.309 504.673 121.309C506.568 121.309 507.809 122.713 507.817 124.633H501.3ZM520.551 136.705C522.568 136.705 523.842 135.651 524.569 133.674L529.756 119.479L527.117 119.455L523.94 129.19H523.809L520.632 119.455H518.019L522.609 132.163L522.307 132.996C521.686 134.663 520.812 134.801 519.472 134.434L518.884 136.435C519.178 136.566 519.816 136.705 520.551 136.705ZM536.892 132.253C540.429 132.253 542.74 129.664 542.74 125.784C542.74 121.88 540.429 119.291 536.892 119.291C533.355 119.291 531.044 121.88 531.044 125.784C531.044 129.664 533.355 132.253 536.892 132.253ZM536.9 130.203C534.589 130.203 533.511 128.186 533.511 125.776C533.511 123.375 534.589 121.333 536.9 121.333C539.195 121.333 540.273 123.375 540.273 125.776C540.273 128.186 539.195 130.203 536.9 130.203ZM553.413 126.797C553.421 128.929 551.837 129.942 550.464 129.942C548.953 129.942 547.908 128.847 547.908 127.14V119.455H545.466V127.434C545.466 130.546 547.173 132.163 549.582 132.163C551.469 132.163 552.751 131.167 553.331 129.827H553.462V132H555.863V119.455H553.413V126.797ZM571.088 119.455H568.515V116.449H566.073V119.455H564.235V121.415H566.073V128.823C566.065 131.102 567.804 132.204 569.732 132.163C570.508 132.155 571.031 132.008 571.316 131.902L570.875 129.885C570.712 129.917 570.41 129.991 570.018 129.991C569.225 129.991 568.515 129.729 568.515 128.316V121.415H571.088V119.455ZM578.939 132.253C582.475 132.253 584.787 129.664 584.787 125.784C584.787 121.88 582.475 119.291 578.939 119.291C575.402 119.291 573.091 121.88 573.091 125.784C573.091 129.664 575.402 132.253 578.939 132.253ZM578.947 130.203C576.636 130.203 575.557 128.186 575.557 125.776C575.557 123.375 576.636 121.333 578.947 121.333C581.242 121.333 582.32 123.375 582.32 125.776C582.32 128.186 581.242 130.203 578.947 130.203ZM593.796 132H596.181V130.048H596.385C596.826 130.848 597.724 132.245 600.011 132.245C603.05 132.245 605.255 129.811 605.255 125.752C605.255 121.684 603.017 119.291 599.987 119.291C597.659 119.291 596.818 120.712 596.385 121.488H596.238V115.273H593.796V132ZM596.189 125.727C596.189 123.105 597.332 121.366 599.464 121.366C601.677 121.366 602.788 123.236 602.788 125.727C602.788 128.243 601.645 130.162 599.464 130.162C597.365 130.162 596.189 128.365 596.189 125.727ZM615.944 126.797C615.952 128.929 614.368 129.942 612.996 129.942C611.485 129.942 610.439 128.847 610.439 127.14V119.455H607.997V127.434C607.997 130.546 609.704 132.163 612.114 132.163C614 132.163 615.283 131.167 615.863 129.827H615.993V132H618.395V119.455H615.944V126.797ZM621.676 132H624.118V119.455H621.676V132ZM622.909 117.519C623.75 117.519 624.453 116.865 624.453 116.065C624.453 115.265 623.75 114.603 622.909 114.603C622.06 114.603 621.366 115.265 621.366 116.065C621.366 116.865 622.06 117.519 622.909 117.519ZM629.846 115.273H627.403V132H629.846V115.273ZM637.827 132.245C640.114 132.245 641.013 130.848 641.454 130.048H641.658V132H644.043V115.273H641.601V121.488H641.454C641.013 120.712 640.18 119.291 637.844 119.291C634.813 119.291 632.584 121.684 632.584 125.752C632.584 129.811 634.781 132.245 637.827 132.245ZM638.366 130.162C636.186 130.162 635.05 128.243 635.05 125.727C635.05 123.236 636.161 121.366 638.366 121.366C640.498 121.366 641.642 123.105 641.642 125.727C641.642 128.365 640.474 130.162 638.366 130.162ZM653.811 132H656.196V130.048H656.4C656.842 130.848 657.74 132.245 660.027 132.245C663.065 132.245 665.271 129.811 665.271 125.752C665.271 121.684 663.033 119.291 660.002 119.291C657.675 119.291 656.833 120.712 656.4 121.488H656.253V115.273H653.811V132ZM656.204 125.727C656.204 123.105 657.348 121.366 659.48 121.366C661.693 121.366 662.804 123.236 662.804 125.727C662.804 128.243 661.66 130.162 659.48 130.162C657.381 130.162 656.204 128.365 656.204 125.727ZM673.42 132.253C676.156 132.253 678.092 130.906 678.647 128.864L676.336 128.447C675.895 129.631 674.833 130.236 673.444 130.236C671.353 130.236 669.949 128.88 669.883 126.462H678.802V125.597C678.802 121.064 676.091 119.291 673.248 119.291C669.752 119.291 667.449 121.954 667.449 125.809C667.449 129.705 669.72 132.253 673.42 132.253ZM669.891 124.633C669.989 122.852 671.28 121.309 673.265 121.309C675.159 121.309 676.401 122.713 676.409 124.633H669.891ZM685.163 132.278C687.237 132.278 688.405 131.224 688.871 130.285H688.969V132H691.354V123.669C691.354 120.018 688.479 119.291 686.486 119.291C684.215 119.291 682.124 120.206 681.308 122.493L683.603 123.016C683.962 122.125 684.877 121.268 686.519 121.268C688.095 121.268 688.903 122.093 688.903 123.514V123.571C688.903 124.461 687.989 124.445 685.734 124.706C683.358 124.984 680.924 125.605 680.924 128.455C680.924 130.922 682.778 132.278 685.163 132.278ZM685.694 130.317C684.313 130.317 683.317 129.697 683.317 128.488C683.317 127.181 684.477 126.716 685.89 126.528C686.682 126.422 688.56 126.209 688.912 125.858V127.475C688.912 128.962 687.727 130.317 685.694 130.317ZM702.554 126.797C702.562 128.929 700.977 129.942 699.605 129.942C698.094 129.942 697.049 128.847 697.049 127.14V119.455H694.607V127.434C694.607 130.546 696.314 132.163 698.723 132.163C700.61 132.163 701.892 131.167 702.472 129.827H702.603V132H705.004V119.455H702.554V126.797ZM714.141 119.455H711.569V116.449H709.127V119.455H707.289V121.415H709.127V128.823C709.118 131.102 710.858 132.204 712.786 132.163C713.562 132.155 714.084 132.008 714.37 131.902L713.929 129.885C713.766 129.917 713.464 129.991 713.071 129.991C712.279 129.991 711.569 129.729 711.569 128.316V121.415H714.141V119.455ZM716.843 132H719.285V119.455H716.843V132ZM718.076 117.519C718.917 117.519 719.62 116.865 719.62 116.065C719.62 115.265 718.917 114.603 718.076 114.603C717.227 114.603 716.532 115.265 716.532 116.065C716.532 116.865 717.227 117.519 718.076 117.519ZM728.541 119.455H725.837V118.327C725.837 117.217 726.295 116.612 727.487 116.612C727.994 116.612 728.353 116.727 728.582 116.8L729.153 114.824C728.81 114.693 728.1 114.489 727.112 114.489C725.127 114.489 723.387 115.648 723.387 118.001V119.455H721.451V121.415H723.387V132H725.837V121.415H728.541V119.455ZM739.008 126.797C739.016 128.929 737.431 129.942 736.059 129.942C734.548 129.942 733.503 128.847 733.503 127.14V119.455H731.061V127.434C731.061 130.546 732.768 132.163 735.177 132.163C737.064 132.163 738.346 131.167 738.926 129.827H739.057V132H741.458V119.455H739.008V126.797ZM747.181 115.273H744.739V132H747.181V115.273ZM756.554 136.705H758.996V130.048H759.143C759.584 130.848 760.482 132.245 762.769 132.245C765.808 132.245 768.013 129.811 768.013 125.752C768.013 121.684 765.775 119.291 762.745 119.291C760.417 119.291 759.576 120.712 759.143 121.488H758.939V119.455H756.554V136.705ZM758.947 125.727C758.947 123.105 760.09 121.366 762.222 121.366C764.436 121.366 765.546 123.236 765.546 125.727C765.546 128.243 764.403 130.162 762.222 130.162C760.123 130.162 758.947 128.365 758.947 125.727ZM770.749 132H773.191V124.339C773.191 122.697 774.457 121.513 776.189 121.513C776.695 121.513 777.267 121.603 777.463 121.66V119.324C777.218 119.291 776.736 119.267 776.426 119.267C774.955 119.267 773.698 120.1 773.24 121.447H773.11V119.455H770.749V132ZM784.411 132.253C787.948 132.253 790.259 129.664 790.259 125.784C790.259 121.88 787.948 119.291 784.411 119.291C780.875 119.291 778.563 121.88 778.563 125.784C778.563 129.664 780.875 132.253 784.411 132.253ZM784.42 130.203C782.108 130.203 781.03 128.186 781.03 125.776C781.03 123.375 782.108 121.333 784.42 121.333C786.715 121.333 787.793 123.375 787.793 125.776C787.793 128.186 786.715 130.203 784.42 130.203ZM792.985 119.455V132.8C792.985 133.96 792.504 134.597 791.344 134.597H790.952V136.696C791.123 136.705 791.278 136.705 791.45 136.705C794.047 136.705 795.428 135.332 795.428 132.817V119.455H792.985ZM794.194 117.519C795.036 117.519 795.738 116.865 795.738 116.065C795.738 115.265 795.036 114.603 794.194 114.603C793.345 114.603 792.651 115.265 792.651 116.065C792.651 116.865 793.345 117.519 794.194 117.519ZM804.12 132.253C806.856 132.253 808.792 130.906 809.347 128.864L807.036 128.447C806.595 129.631 805.533 130.236 804.144 130.236C802.054 130.236 800.649 128.88 800.583 126.462H809.502V125.597C809.502 121.064 806.791 119.291 803.948 119.291C800.453 119.291 798.149 121.954 798.149 125.809C798.149 129.705 800.42 132.253 804.12 132.253ZM800.592 124.633C800.69 122.852 801.98 121.309 803.965 121.309C805.86 121.309 807.101 122.713 807.109 124.633H800.592ZM817.496 132.253C820.461 132.253 822.381 130.473 822.65 128.031H820.273C819.963 129.386 818.909 130.187 817.513 130.187C815.446 130.187 814.115 128.463 814.115 125.727C814.115 123.04 815.471 121.349 817.513 121.349C819.065 121.349 820.012 122.33 820.273 123.506H822.65C822.389 120.974 820.322 119.291 817.472 119.291C813.935 119.291 811.648 121.954 811.648 125.784C811.648 129.566 813.854 132.253 817.496 132.253ZM831.118 119.455H828.545V116.449H826.103V119.455H824.265V121.415H826.103V128.823C826.095 131.102 827.835 132.204 829.762 132.163C830.538 132.155 831.061 132.008 831.347 131.902L830.906 129.885C830.742 129.917 830.44 129.991 830.048 129.991C829.256 129.991 828.545 129.729 828.545 128.316V121.415H831.118V119.455ZM843.018 122.517C842.512 120.565 840.984 119.291 838.273 119.291C835.439 119.291 833.429 120.786 833.429 123.007C833.429 124.788 834.508 125.972 836.86 126.495L838.983 126.961C840.192 127.23 840.756 127.769 840.756 128.553C840.756 129.525 839.718 130.285 838.118 130.285C836.656 130.285 835.716 129.656 835.422 128.423L833.062 128.782C833.47 131.004 835.316 132.253 838.134 132.253C841.164 132.253 843.263 130.644 843.263 128.374C843.263 126.601 842.136 125.507 839.833 124.976L837.84 124.518C836.46 124.192 835.863 123.726 835.872 122.877C835.863 121.913 836.909 121.227 838.297 121.227C839.816 121.227 840.519 122.068 840.805 122.909L843.018 122.517ZM858.006 119.455H855.302V118.327C855.302 117.217 855.76 116.612 856.952 116.612C857.459 116.612 857.818 116.727 858.047 116.8L858.618 114.824C858.275 114.693 857.565 114.489 856.576 114.489C854.592 114.489 852.852 115.648 852.852 118.001V119.455H850.916V121.415H852.852V132H855.302V121.415H858.006V119.455ZM865.316 132.253C868.852 132.253 871.164 129.664 871.164 125.784C871.164 121.88 868.852 119.291 865.316 119.291C861.779 119.291 859.468 121.88 859.468 125.784C859.468 129.664 861.779 132.253 865.316 132.253ZM865.324 130.203C863.013 130.203 861.934 128.186 861.934 125.776C861.934 123.375 863.013 121.333 865.324 121.333C867.619 121.333 868.697 123.375 868.697 125.776C868.697 128.186 867.619 130.203 865.324 130.203ZM873.89 132H876.332V124.339C876.332 122.697 877.598 121.513 879.329 121.513C879.836 121.513 880.407 121.603 880.604 121.66V119.324C880.358 119.291 879.877 119.267 879.566 119.267C878.096 119.267 876.838 120.1 876.381 121.447H876.25V119.455H873.89V132ZM889 132H891.524V124.706H898.629V122.542H891.524V117.445H899.373V115.273H889V132ZM902.476 132H905V125.67H908.431C908.488 125.67 908.537 125.67 908.594 125.67L911.992 132H914.867L911.159 125.229C913.209 124.469 914.23 122.762 914.23 120.516C914.23 117.437 912.318 115.273 908.439 115.273H902.476V132ZM905 123.498V117.437H908.169C910.66 117.437 911.689 118.621 911.689 120.516C911.689 122.403 910.66 123.498 908.202 123.498H905ZM917.301 132H927.886V129.827H919.824V124.706H927.241V122.542H919.824V117.445H927.788V115.273H917.301V132ZM931.159 132H941.744V129.827H933.683V124.706H941.099V122.542H933.683V117.445H941.646V115.273H931.159V132ZM946.43 132.155C947.321 132.155 948.064 131.428 948.064 130.522C948.064 129.631 947.321 128.896 946.43 128.896C945.532 128.896 944.797 129.631 944.797 130.522C944.797 131.428 945.532 132.155 946.43 132.155Z" fill="white"/>
</g>
<g id="Frame 1239">
<rect x="1413" y="53" width="210" height="40" rx="4" fill="#3A57E8" fill-opacity="0.35"/>
<g id="Iconly/Bulk/Voice 3">
<g id="Voice 2">
<path id="Fill 1" d="M1448.82 76.2171H1449.17C1451.1 76.2171 1452.73 74.985 1453.3 73.2764C1453.39 73.0276 1453.2 72.7713 1452.93 72.7713H1451.86C1451.51 72.7713 1451.24 72.4977 1451.24 72.16C1451.24 71.8213 1451.51 71.5467 1451.86 71.5467H1452.9C1453.25 71.5467 1453.53 71.2703 1453.53 70.9287C1453.53 70.5872 1453.25 70.3108 1452.9 70.3108H1451.86C1451.51 70.3108 1451.24 70.0362 1451.24 69.6985C1451.24 69.3598 1451.51 69.0853 1451.86 69.0853H1452.9C1453.25 69.0853 1453.53 68.8088 1453.53 68.4673C1453.53 68.1258 1453.25 67.8493 1452.9 67.8493H1451.86C1451.51 67.8493 1451.24 67.5747 1451.24 67.2361C1451.24 66.8984 1451.51 66.6238 1451.86 66.6238H1452.99C1453.25 66.6238 1453.43 66.3789 1453.36 66.1311C1452.85 64.324 1451.17 63 1449.17 63H1448.82C1446.42 63 1444.47 64.9229 1444.47 67.2973V71.9198C1444.47 74.2933 1446.42 76.2171 1448.82 76.2171Z" fill="white"/>
<path id="Fill 3" opacity="0.4" d="M1456.53 70.8242C1456 70.8242 1455.56 71.2518 1455.56 71.7809C1455.56 75.354 1452.62 78.2612 1449 78.2612C1445.38 78.2612 1442.44 75.354 1442.44 71.7809C1442.44 71.2518 1442 70.8242 1441.47 70.8242C1440.93 70.8242 1440.5 71.2518 1440.5 71.7809C1440.5 76.0858 1443.8 79.6398 1448.03 80.1172V82.0419C1448.03 82.57 1448.46 82.9986 1449 82.9986C1449.54 82.9986 1449.97 82.57 1449.97 82.0419V80.1172C1454.2 79.6398 1457.5 76.0858 1457.5 71.7809C1457.5 71.2518 1457.07 70.8242 1456.53 70.8242Z" fill="white"/>
</g>
</g>
<path id="Announcments" d="M1479.25 78L1480.42 74.7045H1485.13L1486.3 78H1487.78L1483.5 66.3636H1482.05L1477.78 78H1479.25ZM1480.87 73.4545L1482.73 68.2045H1482.82L1484.69 73.4545H1480.87ZM1490.75 72.75C1490.75 71.2273 1491.69 70.3636 1492.98 70.3636C1494.22 70.3636 1494.98 71.1761 1494.98 72.5455V78H1496.32V72.4545C1496.32 70.2273 1495.13 69.1591 1493.36 69.1591C1492.04 69.1591 1491.23 69.75 1490.82 70.6364H1490.7V69.2727H1489.41V78H1490.75V72.75ZM1500.11 72.75C1500.11 71.2273 1501.05 70.3636 1502.33 70.3636C1503.58 70.3636 1504.33 71.1761 1504.33 72.5455V78H1505.68V72.4545C1505.68 70.2273 1504.49 69.1591 1502.72 69.1591C1501.4 69.1591 1500.58 69.75 1500.18 70.6364H1500.06V69.2727H1498.77V78H1500.11V72.75ZM1511.67 78.1818C1514.03 78.1818 1515.63 76.3864 1515.63 73.6818C1515.63 70.9545 1514.03 69.1591 1511.67 69.1591C1509.31 69.1591 1507.72 70.9545 1507.72 73.6818C1507.72 76.3864 1509.31 78.1818 1511.67 78.1818ZM1511.67 76.9773C1509.88 76.9773 1509.06 75.4318 1509.06 73.6818C1509.06 71.9318 1509.88 70.3636 1511.67 70.3636C1513.47 70.3636 1514.28 71.9318 1514.28 73.6818C1514.28 75.4318 1513.47 76.9773 1511.67 76.9773ZM1523.17 74.4318C1523.17 76.0682 1521.92 76.8182 1520.92 76.8182C1519.81 76.8182 1519.01 76 1519.01 74.7273V69.2727H1517.67V74.8182C1517.67 77.0455 1518.85 78.1136 1520.49 78.1136C1521.81 78.1136 1522.67 77.4091 1523.08 76.5227H1523.17V78H1524.51V69.2727H1523.17V74.4318ZM1528.31 72.75C1528.31 71.2273 1529.25 70.3636 1530.54 70.3636C1531.78 70.3636 1532.54 71.1761 1532.54 72.5455V78H1533.88V72.4545C1533.88 70.2273 1532.69 69.1591 1530.92 69.1591C1529.61 69.1591 1528.79 69.75 1528.38 70.6364H1528.26V69.2727H1526.97V78H1528.31V72.75ZM1539.87 78.1818C1541.81 78.1818 1543.08 77 1543.31 75.4545H1541.97C1541.72 76.4091 1540.92 76.9773 1539.87 76.9773C1538.28 76.9773 1537.26 75.6591 1537.26 73.6364C1537.26 71.6591 1538.31 70.3636 1539.87 70.3636C1541.06 70.3636 1541.76 71.0909 1541.97 71.8864H1543.31C1543.08 70.25 1541.69 69.1591 1539.85 69.1591C1537.49 69.1591 1535.92 71.0227 1535.92 73.6818C1535.92 76.2955 1537.42 78.1818 1539.87 78.1818ZM1545.27 78H1546.61V72.5455C1546.61 71.267 1547.54 70.3636 1548.58 70.3636C1549.6 70.3636 1550.31 71.0284 1550.31 72.0227V78H1551.68V72.3182C1551.68 71.1932 1552.38 70.3636 1553.61 70.3636C1554.56 70.3636 1555.38 70.8693 1555.38 72.1591V78H1556.72V72.1591C1556.72 70.108 1555.62 69.1591 1554.06 69.1591C1552.81 69.1591 1551.9 69.733 1551.45 70.6364H1551.36C1550.93 69.7045 1550.16 69.1591 1549.02 69.1591C1547.88 69.1591 1547.04 69.7045 1546.68 70.6364H1546.56V69.2727H1545.27V78ZM1562.83 78.1818C1564.6 78.1818 1565.9 77.2955 1566.31 75.9773L1565.01 75.6136C1564.67 76.5227 1563.88 76.9773 1562.83 76.9773C1561.26 76.9773 1560.17 75.9602 1560.11 74.0909H1566.45V73.5227C1566.45 70.2727 1564.51 69.1591 1562.7 69.1591C1560.33 69.1591 1558.76 71.0227 1558.76 73.7045C1558.76 76.3864 1560.31 78.1818 1562.83 78.1818ZM1560.11 72.9318C1560.2 71.5739 1561.16 70.3636 1562.7 70.3636C1564.15 70.3636 1565.08 71.4545 1565.08 72.9318H1560.11ZM1569.83 72.75C1569.83 71.2273 1570.77 70.3636 1572.05 70.3636C1573.3 70.3636 1574.05 71.1761 1574.05 72.5455V78H1575.39V72.4545C1575.39 70.2273 1574.21 69.1591 1572.44 69.1591C1571.12 69.1591 1570.3 69.75 1569.89 70.6364H1569.78V69.2727H1568.49V78H1569.83V72.75ZM1581.64 69.2727H1579.78V67.1818H1578.44V69.2727H1577.12V70.4091H1578.44V75.8636C1578.44 77.3864 1579.66 78.1136 1580.8 78.1136C1581.3 78.1136 1581.62 78.0227 1581.8 77.9545L1581.53 76.75C1581.41 76.7727 1581.23 76.8182 1580.94 76.8182C1580.34 76.8182 1579.78 76.6364 1579.78 75.5V70.4091H1581.64V69.2727ZM1589.68 71.2273C1589.26 69.9886 1588.32 69.1591 1586.59 69.1591C1584.75 69.1591 1583.39 70.2045 1583.39 71.6818C1583.39 72.8864 1584.1 73.6932 1585.71 74.0682L1587.16 74.4091C1588.04 74.6136 1588.46 75.0341 1588.46 75.6364C1588.46 76.3864 1587.66 77 1586.41 77C1585.31 77 1584.63 76.5284 1584.39 75.5909L1583.11 75.9091C1583.43 77.392 1584.65 78.1818 1586.43 78.1818C1588.46 78.1818 1589.84 77.0739 1589.84 75.5682C1589.84 74.3523 1589.08 73.5852 1587.52 73.2045L1586.23 72.8864C1585.19 72.6307 1584.73 72.2841 1584.73 71.6136C1584.73 70.8636 1585.52 70.3182 1586.59 70.3182C1587.76 70.3182 1588.25 70.9659 1588.48 71.5682L1589.68 71.2273Z" fill="white"/>
</g>
</g>
</g>
</g>
<defs>
<filter id="filter0_i_1820_2866" x="-194" y="-233" width="2180" height="2144.61" filterUnits="userSpaceOnUse" color-interpolation-filters="sRGB">
<feFlood flood-opacity="0" result="BackgroundImageFix"/>
<feBlend mode="normal" in="SourceGraphic" in2="BackgroundImageFix" result="shape"/>
<feColorMatrix in="SourceAlpha" type="matrix" values="0 0 0 0 0 0 0 0 0 0 0 0 0 0 0 0 0 0 127 0" result="hardAlpha"/>
<feMorphology radius="24" operator="erode" in="SourceAlpha" result="effect1_innerShadow_1820_2866"/>
<feOffset dx="24" dy="32"/>
<feGaussianBlur stdDeviation="92"/>
<feComposite in2="hardAlpha" operator="arithmetic" k2="-1" k3="1"/>
<feColorMatrix type="matrix" values="0 0 0 0 0.0235294 0 0 0 0 0.0313726 0 0 0 0 0.34902 0 0 0 0.75 0"/>
<feBlend mode="normal" in2="shape" result="effect1_innerShadow_1820_2866"/>
</filter>
<filter id="filter1_i_1820_2866" x="-194" y="5.61719" width="1694.33" height="1667.38" filterUnits="userSpaceOnUse" color-interpolation-filters="sRGB">
<feFlood flood-opacity="0" result="BackgroundImageFix"/>
<feBlend mode="normal" in="SourceGraphic" in2="BackgroundImageFix" result="shape"/>
<feColorMatrix in="SourceAlpha" type="matrix" values="0 0 0 0 0 0 0 0 0 0 0 0 0 0 0 0 0 0 127 0" result="hardAlpha"/>
<feMorphology radius="24" operator="erode" in="SourceAlpha" result="effect1_innerShadow_1820_2866"/>
<feOffset dx="24" dy="32"/>
<feGaussianBlur stdDeviation="92"/>
<feComposite in2="hardAlpha" operator="arithmetic" k2="-1" k3="1"/>
<feColorMatrix type="matrix" values="0 0 0 0 0.0235294 0 0 0 0 0.0313726 0 0 0 0 0.34902 0 0 0 0.75 0"/>
<feBlend mode="normal" in2="shape" result="effect1_innerShadow_1820_2866"/>
</filter>
<filter id="filter2_i_1820_2866" x="-100" y="206.875" width="1442.45" height="1421.53" filterUnits="userSpaceOnUse" color-interpolation-filters="sRGB">
<feFlood flood-opacity="0" result="BackgroundImageFix"/>
<feBlend mode="normal" in="SourceGraphic" in2="BackgroundImageFix" result="shape"/>
<feColorMatrix in="SourceAlpha" type="matrix" values="0 0 0 0 0 0 0 0 0 0 0 0 0 0 0 0 0 0 127 0" result="hardAlpha"/>
<feMorphology radius="24" operator="erode" in="SourceAlpha" result="effect1_innerShadow_1820_2866"/>
<feOffset dx="24" dy="32"/>
<feGaussianBlur stdDeviation="92"/>
<feComposite in2="hardAlpha" operator="arithmetic" k2="-1" k3="1"/>
<feColorMatrix type="matrix" values="0 0 0 0 0.0235294 0 0 0 0 0.0313726 0 0 0 0 0.34902 0 0 0 0.75 0"/>
<feBlend mode="normal" in2="shape" result="effect1_innerShadow_1820_2866"/>
</filter>
<radialGradient id="paint0_radial_1820_2866" cx="0" cy="0" r="1" gradientUnits="userSpaceOnUse" gradientTransform="translate(831.5 117) rotate(90) scale(353.167 603.412)">
<stop stop-color="#3B8AFF"/>
<stop offset="1" stop-color="#0048B3"/>
</radialGradient>
<clipPath id="clip0_1820_2866">
<path d="M0 0H1663V218C1663 226.837 1655.84 234 1647 234H16C7.16341 234 0 226.837 0 218V0Z" fill="white"/>
</clipPath>
</defs>
</svg>
