<svg width="32" height="32" viewBox="0 0 32 32" fill="none" xmlns="http://www.w3.org/2000/svg">
<path d="M17.6464 13.6464C17.4512 13.8417 17.4512 14.1583 17.6464 14.3536C17.8417 14.5488 18.1583 14.5488 18.3536 14.3536L17.6464 13.6464ZM23.5 9C23.5 8.72386 23.2761 8.5 23 8.5L18.5 8.5C18.2239 8.5 18 8.72386 18 9C18 9.27614 18.2239 9.5 18.5 9.5L22.5 9.5L22.5 13.5C22.5 13.7761 22.7239 14 23 14C23.2761 14 23.5 13.7761 23.5 13.5L23.5 9ZM18.3536 14.3536L23.3536 9.35355L22.6464 8.64645L17.6464 13.6464L18.3536 14.3536Z" fill="#1AA053"/>
<path d="M14.3536 13.6464C14.5488 13.8417 14.5488 14.1583 14.3536 14.3536C14.1583 14.5488 13.8417 14.5488 13.6464 14.3536L14.3536 13.6464ZM8.5 9C8.5 8.72386 8.72386 8.5 9 8.5L13.5 8.5C13.7761 8.5 14 8.72386 14 9C14 9.27614 13.7761 9.5 13.5 9.5L9.5 9.5L9.5 13.5C9.5 13.7761 9.27614 14 9 14C8.72386 14 8.5 13.7761 8.5 13.5L8.5 9ZM13.6464 14.3536L8.64645 9.35355L9.35355 8.64645L14.3536 13.6464L13.6464 14.3536Z" fill="#1AA053"/>
<path d="M14.3536 18.3536C14.5488 18.1583 14.5488 17.8417 14.3536 17.6464C14.1583 17.4512 13.8417 17.4512 13.6464 17.6464L14.3536 18.3536ZM8.5 23C8.5 23.2761 8.72386 23.5 9 23.5L13.5 23.5C13.7761 23.5 14 23.2761 14 23C14 22.7239 13.7761 22.5 13.5 22.5L9.5 22.5L9.5 18.5C9.5 18.2239 9.27614 18 9 18C8.72386 18 8.5 18.2239 8.5 18.5L8.5 23ZM13.6464 17.6464L8.64645 22.6464L9.35355 23.3536L14.3536 18.3536L13.6464 17.6464Z" fill="#1AA053"/>
<path d="M17.6464 18.3536C17.4512 18.1583 17.4512 17.8417 17.6464 17.6464C17.8417 17.4512 18.1583 17.4512 18.3536 17.6464L17.6464 18.3536ZM23.5 23C23.5 23.2761 23.2761 23.5 23 23.5L18.5 23.5C18.2239 23.5 18 23.2761 18 23C18 22.7239 18.2239 22.5 18.5 22.5L22.5 22.5L22.5 18.5C22.5 18.2239 22.7239 18 23 18C23.2761 18 23.5 18.2239 23.5 18.5L23.5 23ZM18.3536 17.6464L23.3536 22.6464L22.6464 23.3536L17.6464 18.3536L18.3536 17.6464Z" fill="#1AA053"/>
<circle cx="16" cy="16" r="15.5" stroke="#1AA053"/>
</svg>
