<svg width="32" height="32" viewBox="0 0 32 32" fill="none" xmlns="http://www.w3.org/2000/svg">
<circle cx="16" cy="16" r="15.5" stroke="#F16A1B"/>
<path d="M17.5 13.5H23M17.5 16.5H23M17.5 19.5H23" stroke="#F16A1B" stroke-linecap="round"/>
<path d="M16 11.6499C16 11.2547 16.2327 10.8966 16.5939 10.7361L17.2509 10.444C19.3194 9.5247 21.6806 9.5247 23.7491 10.444L24.4061 10.7361C24.7673 10.8966 25 11.2547 25 11.6499V22.3753C25 22.4393 24.9397 22.4866 24.8772 22.4727V22.4727C22.0197 21.8377 18.9803 21.8377 16.1228 22.4727V22.4727C16.0603 22.4866 16 22.4393 16 22.3753V11.6499Z" stroke="#F16A1B"/>
<path d="M8.5 13.5H14M8.5 16.5H14M8.5 19.5H14" stroke="#F16A1B" stroke-linecap="round"/>
<path d="M7 11.6499C7 11.2547 7.23273 10.8966 7.59386 10.7361L8.25089 10.444C10.3194 9.5247 12.6806 9.5247 14.7491 10.444L15.4061 10.7361C15.7673 10.8966 16 11.2547 16 11.6499V22.3753C16 22.4393 15.9397 22.4866 15.8772 22.4727V22.4727C13.0197 21.8377 9.98033 21.8377 7.12278 22.4727V22.4727C7.06032 22.4866 7 22.4393 7 22.3753V11.6499Z" stroke="#F16A1B"/>
</svg>
