<svg width="124" height="29" viewBox="0 0 124 29" fill="none" xmlns="http://www.w3.org/2000/svg">
<path fill-rule="evenodd" clip-rule="evenodd" d="M85.1072 0C84.5687 0 84.1028 0.1923 83.722 0.57177C83.3414 0.95103 83.1484 1.41544 83.1484 1.95207C83.1484 2.48908 83.3414 2.95327 83.722 3.33237C84.1021 3.71163 84.5681 3.90394 85.1072 3.90394C85.6456 3.90394 86.1116 3.71164 86.4922 3.33237C86.8729 2.9527 87.0659 2.4887 87.0659 1.95207C87.0659 1.41588 86.8729 0.95147 86.4922 0.57157C86.1112 0.19231 85.645 0 85.1072 0Z" fill="#353EF4"/>
<path fill-rule="evenodd" clip-rule="evenodd" d="M10.4173 12.0081C9.05267 14.4614 9.94219 17.5527 12.4039 18.9124C14.8656 20.2725 17.9674 19.3861 19.3319 16.9326C20.6965 14.4795 19.8069 11.388 17.3453 10.0283C14.8836 8.66844 11.7818 9.55488 10.4173 12.0081Z" fill="#353EF4"/>
<path fill-rule="evenodd" clip-rule="evenodd" d="M8.24634 24.4373C7.95246 24.6132 7.66787 24.7991 7.39236 24.9931C7.20415 25.1259 7.17484 25.3945 7.33189 25.5628C8.08661 26.3696 8.90409 27.1483 9.77579 27.8908C10.6768 28.6581 11.8922 28.9617 13.0491 28.7054C14.2814 28.4331 15.4763 28.0911 16.6186 27.6836C18.3177 27.0775 19.9483 26.3097 21.4651 25.4014C21.7435 25.2346 22.0194 25.0623 22.2927 24.8846C22.4499 24.7822 22.4435 24.55 22.2828 24.4533C18.1086 21.9443 12.7156 21.7608 8.24675 24.4372" fill="#353EF4"/>
<mask id="mask0_2680_1022" style="mask-type:alpha" maskUnits="userSpaceOnUse" x="0" y="6" width="7" height="16">
<path d="M0.5 6.85156H6.8161V21.9765H0.5V6.85156Z" fill="white"/>
</mask>
<g mask="url(#mask0_2680_1022)">
<path fill-rule="evenodd" clip-rule="evenodd" d="M4.87232 7.86403C4.69566 7.57094 4.50952 7.28732 4.3145 7.01275C4.18159 6.82538 3.91186 6.79618 3.74325 6.95249C2.93364 7.70484 2.15205 8.51969 1.40704 9.38829C0.636855 10.2861 0.332445 11.4973 0.589385 12.6505C0.863035 13.8786 1.20604 15.0694 1.61489 16.2078C2.22287 17.9013 2.99348 19.5261 3.90478 21.0378C4.07194 21.315 4.2451 21.59 4.42361 21.8627C4.52619 22.0193 4.75918 22.0129 4.85617 21.8527C7.37378 17.6925 7.55768 12.3181 4.87227 7.86367" fill="#9A9FFA"/>
</g>
<path fill-rule="evenodd" clip-rule="evenodd" d="M21.3912 4.50191C21.685 4.32585 21.9698 4.14034 22.2454 3.94618C22.4334 3.81352 22.4629 3.5447 22.3058 3.37667C21.5511 2.56961 20.7334 1.79097 19.8617 1.04847C18.9609 0.280903 17.7455 -0.022427 16.5884 0.233593C15.3561 0.506313 14.1612 0.848143 13.0189 1.25559C11.3198 1.86171 9.68922 2.62949 8.17262 3.53779C7.89422 3.70439 7.61829 3.87695 7.34485 4.05485C7.18759 4.15728 7.19399 4.38928 7.35476 4.48594C11.5292 6.99494 16.922 7.17824 21.3908 4.50199" fill="#9A9FFA"/>
<mask id="mask1_2680_1022" style="mask-type:alpha" maskUnits="userSpaceOnUse" x="22" y="6" width="8" height="17">
<path d="M22.9336 6.96094H29.2496V22.0863H22.9336V6.96094Z" fill="white"/>
</mask>
<g mask="url(#mask1_2680_1022)">
<path fill-rule="evenodd" clip-rule="evenodd" d="M24.8773 21.0735C25.054 21.3664 25.2401 21.65 25.4352 21.9246C25.5681 22.1121 25.8378 22.1411 26.0064 21.9848C26.816 21.2325 27.5976 20.4178 28.3426 19.5492C29.1128 18.6512 29.4172 17.44 29.1603 16.287C28.8866 15.0589 28.5436 13.8681 28.1348 12.7297C27.5268 11.0364 26.7562 9.41142 25.8449 7.89972C25.6777 7.62227 25.5046 7.34728 25.326 7.07476C25.2235 6.91824 24.9905 6.92462 24.8935 7.08483C22.3759 11.2448 22.192 16.6194 24.8774 21.0738" fill="#9A9FFA"/>
</g>
<path fill-rule="evenodd" clip-rule="evenodd" d="M63.4403 6.44932C61.1883 6.44932 59.4985 7.35305 58.5248 9.06942V6.87202H55.9453V22.059H58.5248V14.1636C58.5248 12.5676 58.9289 11.2759 59.7261 10.3243C60.5184 9.37863 61.6264 8.89922 63.0194 8.89922C64.1929 8.89922 65.1337 9.28321 65.8158 10.0405C66.501 10.8013 66.8481 11.965 66.8481 13.4995V22.059H69.4276V13.0168C69.4276 10.8451 68.8978 9.19002 67.853 8.09772C66.836 7.03482 65.269 6.44922 63.4403 6.44922" fill="#353EF4"/>
<mask id="mask2_2680_1022" style="mask-type:alpha" maskUnits="userSpaceOnUse" x="107" y="6" width="17" height="17">
<path d="M107.252 6.44922H123.339V22.4813H107.252V6.44922Z" fill="white"/>
</mask>
<g mask="url(#mask2_2680_1022)">
<path fill-rule="evenodd" clip-rule="evenodd" d="M120.712 14.4655C120.712 17.5463 118.282 20.053 115.295 20.053C112.309 20.053 109.88 17.5462 109.88 14.4655C109.88 11.3847 112.309 8.87822 115.295 8.87822C118.282 8.87822 120.712 11.3847 120.712 14.4655ZM115.295 6.44922C110.86 6.44922 107.252 10.0454 107.252 14.4655C107.252 18.8856 110.86 22.4816 115.295 22.4816C119.731 22.4816 123.339 18.8856 123.339 14.4655C123.339 10.0454 119.731 6.44922 115.295 6.44922Z" fill="#353EF4"/>
</g>
<path fill-rule="evenodd" clip-rule="evenodd" d="M50.8637 14.4655C50.8637 17.5463 48.434 20.053 45.4476 20.053C42.4613 20.053 40.0319 17.5462 40.0319 14.4655C40.0319 11.3848 42.4614 8.87822 45.4476 8.87822C48.4341 8.87822 50.8637 11.3847 50.8637 14.4655ZM45.4476 6.44922C41.0126 6.44922 37.4043 10.0454 37.4043 14.4655C37.4043 18.8856 41.0126 22.4816 45.4476 22.4816C49.8828 22.4816 53.4911 18.8856 53.4911 14.4655C53.4911 10.0454 49.8828 6.44922 45.4476 6.44922Z" fill="#353EF4"/>
<path fill-rule="evenodd" clip-rule="evenodd" d="M102.27 14.4654C102.27 17.5462 99.841 20.0529 96.8546 20.0529C93.8682 20.0529 91.4385 17.5461 91.4385 14.4654C91.4385 11.3847 93.8682 8.87814 96.8546 8.87814C99.841 8.87814 102.27 11.3846 102.27 14.4654ZM102.352 8.99724C100.889 7.37404 98.844 6.44914 96.6969 6.44914C92.4301 6.44914 88.959 10.0453 88.959 14.4654C88.959 18.8855 92.43 22.4815 96.6969 22.4815C98.8442 22.4815 100.889 21.5566 102.352 19.9338V22.0588H104.931V0.714844H102.352V8.99734V8.99724Z" fill="#353EF4"/>
<mask id="mask3_2680_1022" style="mask-type:alpha" maskUnits="userSpaceOnUse" x="0" y="0" width="124" height="29">
<path d="M0.5 28.795H123.33V0H0.5V28.795Z" fill="white"/>
</mask>
<g mask="url(#mask3_2680_1022)">
<path fill-rule="evenodd" clip-rule="evenodd" d="M83.8184 22.0583H86.3974V6.87109H83.8184V22.0583Z" fill="#353EF4"/>
<path fill-rule="evenodd" clip-rule="evenodd" d="M76.4832 6.87339V3.86989C76.4832 3.12556 77.0889 2.52229 77.8358 2.52229H80.8431V0.179688H77.5555C75.5386 0.179688 73.9037 1.80899 73.9037 3.81889V6.87339H71.0508V9.25349H73.9031V22.0605H76.4832V9.25349H80.8431V6.87339H76.4832Z" fill="#353EF4"/>
</g>
</svg>
