<svg width="75" height="75" viewBox="0 0 75 75" fill="none" xmlns="http://www.w3.org/2000/svg">
<rect width="75" height="75" rx="8" fill="#C4CCF8"/>
<path d="M37.2652 20.0508C34.1066 20.0508 31.0066 20.9104 28.2925 22.5388C25.5783 24.1672 23.3507 26.5041 21.8448 29.3027C20.3389 32.1013 19.6105 35.2578 19.7366 38.439C19.8627 41.6202 20.8386 44.7081 22.5612 47.3767C24.2839 50.0453 26.6893 52.1955 29.5237 53.6005C32.3581 55.0055 35.5162 55.613 38.6647 55.359C41.8133 55.105 44.8353 53.9989 47.4119 52.1574C49.9885 50.3159 52.024 47.8073 53.3036 44.8965L48.7665 42.8701C47.8489 44.9574 46.3892 46.7563 44.5415 48.0769C42.6938 49.3975 40.5266 50.1907 38.2688 50.3729C36.011 50.555 33.7463 50.1193 31.7137 49.1118C29.6811 48.1043 27.9561 46.5623 26.7208 44.6486C25.4855 42.735 24.7857 40.5206 24.6953 38.2393C24.6048 35.958 25.1271 33.6945 26.207 31.6876C27.287 29.6807 28.8844 28.0049 30.8307 26.8371C32.7771 25.6693 35.0001 25.0529 37.2652 25.0529V20.0508Z" fill="#738AFE"/>
<path d="M54.0428 42.8881C54.8135 40.4613 55.0303 37.8877 54.6775 35.353C54.3246 32.8184 53.411 30.3861 52.0026 28.2319C50.5943 26.0776 48.7263 24.2553 46.5337 22.8966C44.3411 21.5378 41.8787 20.6766 39.3243 20.3751L38.8213 25.0967C40.6715 25.315 42.4551 25.9388 44.0432 26.923C45.6313 27.9071 46.9843 29.227 48.0044 30.7874C49.0245 32.3477 49.6862 34.1094 49.9418 35.9453C50.1973 37.7812 50.0403 39.6453 49.4821 41.403L54.0428 42.8881Z" fill="#738AFE"/>
<path d="M37.445 48.1211C39.3163 48.1211 41.1539 47.6195 42.7694 46.6677C44.3849 45.7159 45.7202 44.3481 46.6385 42.7046C47.5567 41.0612 48.0248 39.2011 47.9947 37.3152C47.9647 35.4293 47.4376 33.5853 46.4675 31.9724C45.4974 30.3595 44.1192 29.0357 42.4742 28.1366C40.8292 27.2376 38.9766 26.7957 37.1063 26.8563C35.236 26.9168 33.4153 27.4777 31.831 28.4813C30.2466 29.4849 28.9555 30.8951 28.0901 32.5675L31.4473 34.3325C32.0021 33.2603 32.8299 32.3562 33.8457 31.7127C34.8614 31.0693 36.0287 30.7097 37.2278 30.6709C38.427 30.6321 39.6147 30.9154 40.6694 31.4918C41.7241 32.0682 42.6077 32.9169 43.2297 33.951C43.8516 34.9851 44.1896 36.1673 44.2088 37.3765C44.2281 38.5856 43.928 39.7781 43.3393 40.8318C42.7506 41.8855 41.8944 42.7624 40.8587 43.3727C39.8229 43.9829 38.6448 44.3045 37.445 44.3045V48.1211Z" fill="#738AFE"/>
<path d="M27.5622 33.6912C26.9893 35.1263 26.7489 36.6751 26.8588 38.2236C26.9687 39.7721 27.4261 41.2808 28.1973 42.6387C28.9686 43.9967 30.0339 45.1692 31.3151 46.0701C32.5962 46.971 34.0605 47.5773 35.6002 47.8444L36.2072 44.1147C35.2295 43.9451 34.2997 43.5601 33.4862 42.988C32.6727 42.416 31.9961 41.6714 31.5064 40.8091C31.0167 39.9468 30.7263 38.9888 30.6565 38.0055C30.5867 37.0222 30.7393 36.0388 31.1031 35.1275L27.5622 33.6912Z" fill="#738AFE"/>
</svg>
